<svg width="311" height="68" viewBox="0 0 311 68" fill="none" xmlns="http://www.w3.org/2000/svg">
<path d="M24.808 38.992C25.3627 38.992 26.1307 38.7147 27.112 38.16C28.0933 37.5627 29.0533 36.7093 29.992 35.6C30.9733 34.448 31.8053 33.04 32.488 31.376C33.2133 29.712 33.576 27.8133 33.576 25.68C33.576 23.632 33.3413 21.6907 32.872 19.856C32.4027 17.9787 31.6133 16.3573 30.504 14.992C29.4373 13.584 27.9867 12.4747 26.152 11.664C24.36 10.8107 22.0987 10.384 19.368 10.384H19.304H4.84V58H15.592V42.512H15.72L22.12 58H34.472L24.808 38.992ZM0.744 0.975998H38.824V67.92H0.744V0.975998ZM71.274 10.384H42.09V58H71.274V47.248H52.842V39.568H66.41V28.816H52.842V21.136H71.274V10.384ZM37.994 0.975998H75.434V67.92H37.994V0.975998ZM102.013 33.744L89.2765 10.384H78.3325V58H89.7245V34.576L102.525 58H113.405V10.384H102.013V33.744ZM74.5565 0.975998H116.989V67.92H74.5565V0.975998ZM153.107 34.192C153.107 30.8213 152.637 27.6853 151.699 24.784C150.76 21.84 149.352 19.3227 147.475 17.232C145.597 15.0987 143.251 13.4347 140.435 12.24C137.619 11.0027 134.355 10.384 130.643 10.384H121.043V58H130.643H132.051C135.933 58 139.219 57.36 141.907 56.08C144.595 54.8 146.771 53.072 148.435 50.896C150.099 48.72 151.293 46.2027 152.019 43.344C152.744 40.4427 153.107 37.392 153.107 34.192ZM116.306 0.975998H158.547V67.92H116.306V0.975998ZM191.149 10.384H161.965V58H191.149V47.248H172.717V39.568H186.285V28.816H172.717V21.136H191.149V10.384ZM157.869 0.975998H195.309V67.92H157.869V0.975998ZM218.496 38.992C219.05 38.992 219.818 38.7147 220.8 38.16C221.781 37.5627 222.741 36.7093 223.68 35.6C224.661 34.448 225.493 33.04 226.176 31.376C226.901 29.712 227.264 27.8133 227.264 25.68C227.264 23.632 227.029 21.6907 226.56 19.856C226.09 17.9787 225.301 16.3573 224.192 14.992C223.125 13.584 221.674 12.4747 219.84 11.664C218.048 10.8107 215.786 10.384 213.056 10.384H212.992H198.528V58H209.28V42.512H209.408L215.808 58H228.16L218.496 38.992ZM194.431 0.975998H232.512V67.92H194.431V0.975998ZM264.962 10.384H235.778V58H264.962V47.248H246.53V39.568H260.098V28.816H246.53V21.136H264.962V10.384ZM231.681 0.975998H269.122V67.92H231.681V0.975998ZM305.044 34.192C305.044 30.8213 304.575 27.6853 303.636 24.784C302.697 21.84 301.289 19.3227 299.412 17.232C297.535 15.0987 295.188 13.4347 292.372 12.24C289.556 11.0027 286.292 10.384 282.58 10.384H272.98V58H282.58H283.988C287.871 58 291.156 57.36 293.844 56.08C296.532 54.8 298.708 53.072 300.372 50.896C302.036 48.72 303.231 46.2027 303.956 43.344C304.681 40.4427 305.044 37.392 305.044 34.192ZM268.244 0.975998H310.484V67.92H268.244V0.975998Z" fill="black"/>
</svg>
